<svg xmlns="http://www.w3.org/2000/svg" viewBox="0 0 141.9 141.76" xmlns:v="https://vecta.io/nano"><defs><linearGradient id="A" x1="15.11" y1="35.743" x2="79.761" y2="147.723" gradientUnits="userSpaceOnUse"><stop offset="0" stop-color="#3b8964"/><stop offset=".25" stop-color="#5abf8c"/></linearGradient><linearGradient id="B" x1="66.423" y1="134.719" x2="133.4" y2="26.117" gradientUnits="userSpaceOnUse"><stop offset="0" stop-color="#803471"/><stop offset=".21" stop-color="#b34f9e"/></linearGradient><linearGradient id="C" x1="10.817" y1="28.945" x2="124.193" y2="70.221" gradientUnits="userSpaceOnUse"><stop offset=".6" stop-color="#f99c2e"/><stop offset="1" stop-color="#c57538"/></linearGradient></defs><path d="M42.61 113.83c-21.88-24.82-7.28-87.55 2-87.55C26.69 25.92-3.56 37.69.51 79.65a71.1 71.1 0 0 0 113.71 47.49c-34.3 24.52-57.54 2.65-71.61-13.31z" fill="url(#A)"/><path d="M122.71 71.67c-18.14 36.28-73.77 51.56-80.1 42.16 10.87 15.78 37.84 37.88 71.83 13.15A70.92 70.92 0 0 0 97.73 5.26c38.42 17.06 34.53 47.31 24.98 66.41z" fill="url(#B)"/><path d="M44.61,26.28c39.24-4.21,83.74,36,78.1,45.39,11-18.74,13.58-49.35-24.82-66.42A71.14,71.14,0,0,0,.65,80.66C-2.13,38.92,29.94,27.85,44.61,26.28Z" fill="url(#C)"/></svg>