<svg width='24' height='24' viewBox='0 0 24 24' xmlns='http://www.w3.org/2000/svg' xmlns:xlink='http://www.w3.org/1999/xlink'><rect width='24' height='24' stroke='none' fill='#000000' opacity='0'/>


<g transform="matrix(0.83 0 0 0.83 12 12)" >
<g style="" >
<g transform="matrix(1 0 0 1 -6 0.5)" >
<path style="stroke: rgb(0,0,0); stroke-width: 2; stroke-dasharray: none; stroke-linecap: butt; stroke-dashoffset: 0; stroke-linejoin: round; stroke-miterlimit: 10; fill: none; fill-rule: nonzero; opacity: 1;" transform=" translate(-6, -12.5)" d="M 1 12.5 C 1 15.3 3.2 17.5 6 17.5 C 8.8 17.5 11 15.3 11 12.5 C 11 9.7 8.8 7.5 6 7.5 L 1 7.5 L 1 12.5 Z" stroke-linecap="round" />
</g>
<g transform="matrix(1 0 0 1 7 2.5)" >
<path style="stroke: rgb(0,0,0); stroke-width: 2; stroke-dasharray: none; stroke-linecap: butt; stroke-dashoffset: 0; stroke-linejoin: round; stroke-miterlimit: 10; fill: none; fill-rule: nonzero; opacity: 1;" transform=" translate(-19, -14.5)" d="M 15 14.5 C 15 13.4 15.9 12.5 17 12.5 L 21 12.5 C 22.1 12.5 23 13.4 23 14.5 C 23 15.6 22.1 16.5 21 16.5 L 17 16.5 C 15.9 16.5 15 15.6 15 14.5 Z" stroke-linecap="round" />
</g>
<g transform="matrix(1 0 0 1 -0.08 0.5)" >
<path style="stroke: none; stroke-width: 1; stroke-dasharray: none; stroke-linecap: butt; stroke-dashoffset: 0; stroke-linejoin: miter; stroke-miterlimit: 4; fill: rgb(0,0,0); fill-rule: evenodd; opacity: 1;" transform=" translate(-11.92, -12.5)" d="M 11.5 5 C 9.27874 5 7.28303 5.96563 5.90973 7.5 L 3.42071 7.5 C 5.0959 4.79888 8.08787 3 11.5 3 C 16.7467 3 21 7.25329 21 12.5 L 19 12.5 C 19 8.35786 15.6421 5 11.5 5 Z M 17.8454 16.5 C 16.5169 18.6032 14.1716 20 11.5 20 C 9.27837 20 7.28236 19.034 5.90903 17.4992 C 4.73356 17.4792 3.66793 17.0708 2.83221 16.3941 C 4.31927 19.699 7.64092 22 11.5 22 C 15.3177 22 18.6095 19.748 20.1193 16.5 L 17.8454 16.5 Z" stroke-linecap="round" />
</g>
<g transform="matrix(1 0 0 1 -8.5 -0.5)" >
<path style="stroke: rgb(0,0,0); stroke-width: 2; stroke-dasharray: none; stroke-linecap: butt; stroke-dashoffset: 0; stroke-linejoin: round; stroke-miterlimit: 10; fill: none; fill-rule: nonzero; opacity: 1;" transform=" translate(-3.5, -11.5)" d="M 1 11.5 L 6 11.5" stroke-linecap="round" />
</g>
<g transform="matrix(1 0 0 1 3 -2.5)" >
<path style="stroke: none; stroke-width: 1; stroke-dasharray: none; stroke-linecap: butt; stroke-dashoffset: 0; stroke-linejoin: miter; stroke-miterlimit: 4; fill: rgb(0,0,0); fill-rule: nonzero; opacity: 1;" transform=" translate(-15, -9.5)" d="M 15 10.5 C 15.5523 10.5 16 10.0523 16 9.5 C 16 8.94772 15.5523 8.5 15 8.5 C 14.4477 8.5 14 8.94772 14 9.5 C 14 10.0523 14.4477 10.5 15 10.5 Z" stroke-linecap="round" />
</g>
</g>
</g>
</svg>